<?xml version="1.0" encoding="UTF-8" standalone="no"?>
<!-- Generator: Adobe Illustrator 16.0.0, SVG Export Plug-In . SVG Version: 6.00 Build 0)  -->

<svg
   xmlns:dc="http://purl.org/dc/elements/1.1/"
   xmlns:cc="http://creativecommons.org/ns#"
   xmlns:rdf="http://www.w3.org/1999/02/22-rdf-syntax-ns#"
   xmlns:svg="http://www.w3.org/2000/svg"
   xmlns="http://www.w3.org/2000/svg"
   xmlns:sodipodi="http://sodipodi.sourceforge.net/DTD/sodipodi-0.dtd"
   xmlns:inkscape="http://www.inkscape.org/namespaces/inkscape"
   version="1.1"
   id="Layer_1"
   x="0px"
   y="0px"
   width="24px"
   height="24px"
   viewBox="0 0 24 24"
   enable-background="new 0 0 24 24"
   xml:space="preserve"
   sodipodi:docname="placehodlerimage-photoprovider.svg"
   inkscape:version="0.92.5 (2060ec1f9f, 2020-04-08)"
   inkscape:export-filename="/var/www/html/wp-ecommerce-djibian/site/wp-content/plugins/stmartin/assets/images/placehodlerimage-photoprovider.png"
   inkscape:export-xdpi="1136"
   inkscape:export-ydpi="1136"><metadata
   id="metadata17"><rdf:RDF><cc:Work
       rdf:about=""><dc:format>image/svg+xml</dc:format><dc:type
         rdf:resource="http://purl.org/dc/dcmitype/StillImage" /><dc:title></dc:title></cc:Work></rdf:RDF></metadata><defs
   id="defs15">
	

		
		
		
	</defs><sodipodi:namedview
   pagecolor="#ffffff"
   bordercolor="#666666"
   borderopacity="1"
   objecttolerance="10"
   gridtolerance="10"
   guidetolerance="10"
   inkscape:pageopacity="0"
   inkscape:pageshadow="2"
   inkscape:window-width="1848"
   inkscape:window-height="1016"
   id="namedview13"
   showgrid="false"
   inkscape:zoom="16"
   inkscape:cx="3.9734105"
   inkscape:cy="14.165187"
   inkscape:window-x="72"
   inkscape:window-y="27"
   inkscape:window-maximized="1"
   inkscape:current-layer="Layer_1" />
<circle
   style="fill:#ffffff;fill-opacity:1;stroke-width:0.85714519"
   id="path4553"
   cx="12"
   cy="12"
   r="11.4375" /><path
   d="m 11.994,11.556 c 1.543,0 2.512,-2.262 2.564,-4.425 C 14.419,7.071 14.16,6.415 14.119,6.254 14.062,6.025 13.652,5.318 13.652,5.318 c 0,0 -0.162,1.164 -0.273,1.048 C 13.27,6.252 13.172,6.126 13.096,5.988 12.928,6.151 12.723,6.33 12.481,6.507 12.247,6.678 12.047,6.926 10.561,7.379 l 0.305,-1.131 c 0,0 -1.018,1.307 -1.412,1.33 0.163,2.017 1.105,3.978 2.54,3.978 z"
   id="path2"
   inkscape:connector-curvature="0"
   style="fill:#808080;fill-opacity:1" /><path
   d="M 12,0 C 5.373,0 0,5.373 0,12 0,18.627 5.373,24 12,24 18.627,24 24,18.627 24,12 24,5.373 18.627,0 12,0 Z M 8.457,8 c 0,0 -0.727,-4.78 3.436,-4.78 2.322,0 4.105,1.466 3.521,4.261 0.248,0.387 0.502,1.143 -0.572,2.226 -0.531,1.506 -1.518,2.607 -2.848,2.607 -1.381,0 -2.352,-0.94 -2.867,-2.447 C 8.225,8.945 8.281,8 8.471,8 Z m 3.524847,13.420305 C 8.9939301,21.384378 5.9865662,19.989606 4.173,17.306 4.23,16.729 4.361,16.21 4.536,15.748 5.399,13.477 7.37,12.539 7.397,12.526 l 0.025,-0.011 2.145,-0.788 c 1.242374,1.918881 3.654888,1.982065 4.851,0.034 l 2.184,0.782 c 0.025,0.013 1.998,0.941 2.861,3.213 0.176,0.463 0.305,0.977 0.363,1.554 -1.996463,2.4454 -4.856236,4.146231 -7.844153,4.110305 z"
   id="path6"
   inkscape:connector-curvature="0"
   sodipodi:nodetypes="ssssscsccsccczcccccccccz"
   style="fill:#808080;fill-opacity:1" />
</svg>